<svg width="60" height="60" viewBox="0 0 60 60" fill="none" xmlns="http://www.w3.org/2000/svg">
<path d="M30 59C46.0163 59 59 46.0163 59 30C59 13.9837 46.0163 1 30 1C13.9837 1 1 13.9837 1 30C1 46.0163 13.9837 59 30 59Z" stroke="#231F20" stroke-width="2" stroke-linecap="round" stroke-linejoin="round"/>
<path d="M25 47C24.6895 47 24.3833 46.9277 24.1056 46.7888C23.8279 46.65 23.5863 46.4484 23.4 46.2L11.4 30.2C11.1771 29.9029 11.0414 29.5495 11.0081 29.1796C10.9747 28.8097 11.045 28.4378 11.2111 28.1056C11.3773 27.7734 11.6326 27.494 11.9485 27.2987C12.2645 27.1034 12.6286 27 13 27C13.3105 27 13.6167 27.0723 13.8944 27.2111C14.1721 27.35 14.4137 27.5516 14.6 27.8L24.9 41.54L43.34 13.89C43.4858 13.6713 43.6732 13.4835 43.8915 13.3373C44.1099 13.1911 44.3549 13.0893 44.6126 13.0378C44.8702 12.9862 45.1355 12.986 45.3933 13.037C45.6511 13.088 45.8964 13.1892 46.115 13.335C46.3337 13.4808 46.5215 13.6682 46.6677 13.8865C46.8139 14.1049 46.9157 14.3499 46.9672 14.6076C47.0188 14.8652 47.019 15.1305 46.968 15.3883C46.917 15.6461 46.8158 15.8913 46.67 16.11L26.67 46.11C26.4925 46.3764 26.2536 46.5962 25.9734 46.7511C25.6932 46.906 25.38 46.9913 25.06 47H25Z" fill="#FFDD55"/>
<path d="M45 14C45.1801 14.0009 45.3566 14.0505 45.5108 14.1434C45.6651 14.2363 45.7914 14.3692 45.8764 14.5279C45.9614 14.6867 46.002 14.8654 45.9938 15.0453C45.9856 15.2252 45.9291 15.3996 45.83 15.55L25.83 45.55C25.7394 45.6876 25.6162 45.8006 25.4715 45.8791C25.3267 45.9576 25.1647 45.9991 25 46V46C24.8448 46 24.6916 45.9639 24.5528 45.8944C24.4139 45.825 24.2931 45.7242 24.2 45.6L12.2 29.6C12.1212 29.4949 12.0639 29.3754 12.0313 29.2482C11.9987 29.121 11.9915 28.9886 12.0101 28.8586C12.0286 28.7286 12.0726 28.6035 12.1395 28.4905C12.2064 28.3775 12.2949 28.2788 12.4 28.2C12.5051 28.1212 12.6246 28.0639 12.7518 28.0313C12.879 27.9987 13.0114 27.9915 13.1414 28.01C13.2714 28.0286 13.3965 28.0726 13.5095 28.1395C13.6225 28.2064 13.7212 28.2949 13.8 28.4L25 43.27L44.17 14.45C44.2606 14.3124 44.3838 14.1994 44.5285 14.1209C44.6733 14.0424 44.8353 14.0009 45 14ZM45 12C44.5051 11.9998 44.0178 12.1221 43.5816 12.3559C43.1454 12.5897 42.7738 12.9278 42.5 13.34L24.86 39.81L15.4 27.2C15.1206 26.8274 14.7582 26.525 14.3416 26.3167C13.9251 26.1084 13.4657 26 13 26C12.4429 26 11.8967 26.1551 11.4228 26.448C10.9489 26.741 10.5659 27.16 10.3167 27.6584C10.0676 28.1567 9.96209 28.7145 10.0121 29.2694C10.0622 29.8243 10.2657 30.3543 10.6 30.8L22.6 46.8C22.8794 47.1726 23.2418 47.475 23.6584 47.6833C24.0749 47.8916 24.5343 48 25 48H25.09C25.5696 47.9856 26.0387 47.8565 26.4581 47.6233C26.8774 47.3901 27.2347 47.0598 27.5 46.66L47.5 16.66C47.8003 16.208 47.9723 15.683 47.9978 15.1409C48.0233 14.5988 47.9013 14.06 47.6447 13.5818C47.3882 13.1036 47.0067 12.7039 46.541 12.4253C46.0752 12.1468 45.5427 11.9998 45 12V12Z" fill="#231F20"/>
</svg>
