<svg id="Layer_1" data-name="Layer 1" xmlns="http://www.w3.org/2000/svg" viewBox="0 0 44 56"><defs><style>.cls-1{fill:none;}.cls-1,.cls-2{stroke:#231f20;stroke-linecap:round;stroke-linejoin:round;stroke-width:2px;}.cls-2{fill:#fd5;}</style></defs><title>Vector Smart Object2</title><path class="cls-1" d="M42,20V42a8,8,0,0,1-16,0V36a8,8,0,0,0-16,0V59" transform="translate(-9 -4)"/><polyline class="cls-1" points="27 22 33 16 39 22"/><path class="cls-2" d="M48,11c0-2.21-1.09-6-6-6-4.14,0-6,3-6,6a5.66,5.66,0,0,0,6,6C47.05,17.05,48,13.21,48,11Z" transform="translate(-9 -4)"/><line class="cls-1" x1="13" y1="44" x2="7" y2="50"/><line class="cls-1" x1="13" y1="50" x2="7" y2="44"/><line class="cls-1" x1="7" y1="12" x2="1" y2="18"/><line class="cls-1" x1="7" y1="18" x2="1" y2="12"/><line class="cls-1" x1="43" y1="40" x2="37" y2="46"/><line class="cls-1" x1="43" y1="46" x2="37" y2="40"/><line class="cls-1" x1="28" y1="33" x2="22" y2="39"/><line class="cls-1" x1="28" y1="39" x2="22" y2="33"/><polygon class="cls-1" points="29.28 25.63 29.28 25.63 29.28 25.63 29.28 25.63 29.28 25.63"/></svg>