<svg id="Layer_1" data-name="Layer 1" xmlns="http://www.w3.org/2000/svg" viewBox="0 0 58 54"><defs><style>.cls-1{fill:#fd5;}.cls-1,.cls-2{stroke:#231f20;stroke-linecap:round;stroke-linejoin:round;stroke-width:2px;}.cls-2{fill:#fff;}</style></defs><title>Vector Smart Object</title><line class="cls-1" x1="25" y1="13" x2="9" y2="41"/><line class="cls-1" x1="33" y1="13" x2="49" y2="41"/><line class="cls-1" x1="18.14" y1="31.01" x2="25" y2="43"/><path class="cls-1" d="M36,10c0-2.21-1.09-6.06-6-6-4.14,0-5.95,3-6,6a5.66,5.66,0,0,0,6,6C35.05,16.05,36,12.21,36,10Z" transform="translate(-1 -3)"/><path class="cls-1" d="M23,30c0-2.21-1.09-6.06-6-6-4.14,0-5.95,2.95-6,6a5.66,5.66,0,0,0,6,6C22.05,36.05,23,32.21,23,30Z" transform="translate(-1 -3)"/><path class="cls-2" d="M48,30c0-2.21-1.09-6.06-6-6-4.14,0-6,2.95-6,6a5.66,5.66,0,0,0,6,6C47.05,36.05,48,32.21,48,30Z" transform="translate(-1 -3)"/><path class="cls-2" d="M14,50c0-2.21-1.09-6.06-6-6-4.14,0-5.95,3-6,6a5.66,5.66,0,0,0,6,6C13.05,56.05,14,52.21,14,50Z" transform="translate(-1 -3)"/><path class="cls-1" d="M36,50c0-2.21-1.09-6.06-6-6-4.14,0-5.95,3-6,6a5.66,5.66,0,0,0,6,6C35.05,56.05,36,52.21,36,50Z" transform="translate(-1 -3)"/><path class="cls-2" d="M58,50c0-2.21-1.09-6.06-6-6-4.14,0-6,3-6,6a5.66,5.66,0,0,0,6,6C57.05,56.05,58,52.21,58,50Z" transform="translate(-1 -3)"/></svg>