<svg width="63" height="60" viewBox="0 0 63 60" fill="none" xmlns="http://www.w3.org/2000/svg">
<rect width="60" height="60" transform="translate(2)" fill="white"/>
<path d="M30.5 45.01C37.9558 45.01 44 38.9748 44 31.53C44 24.0852 37.9558 18.05 30.5 18.05C23.0442 18.05 17 24.0852 17 31.53C17 38.9748 23.0442 45.01 30.5 45.01Z" fill="#FFDD55" stroke="#231F20" stroke-width="2" stroke-linecap="round" stroke-linejoin="round"/>
<path d="M57 11C57.9889 11 58.9556 10.7068 59.7779 10.1573C60.6001 9.60794 61.241 8.82705 61.6194 7.91342C61.9978 6.99979 62.0969 5.99446 61.9039 5.02455C61.711 4.05465 61.2348 3.16373 60.5355 2.46447C59.8363 1.76521 58.9454 1.289 57.9755 1.09608C57.0055 0.90315 56.0002 1.00217 55.0866 1.3806C54.173 1.75904 53.3921 2.39991 52.8427 3.22215C52.2932 4.0444 52 5.0111 52 6" stroke="#231F20" stroke-width="2" stroke-linecap="round" stroke-linejoin="round"/>
<path d="M57 6L52.55 10.45" stroke="#231F20" stroke-width="2" stroke-linecap="round" stroke-linejoin="round"/>
<path d="M28 1H34" stroke="#231F20" stroke-width="2" stroke-linecap="round" stroke-linejoin="round"/>
<path d="M14.63 4.93L4.00001 15.57C4.00001 15.57 -1.99999 12 4.00001 6C12 -2 14.63 4.93 14.63 4.93Z" fill="#FFDD55" stroke="#231F20" stroke-width="2" stroke-linecap="round" stroke-linejoin="round"/>
<path d="M31 9V13" stroke="#231F20" stroke-width="2" stroke-linecap="round" stroke-linejoin="round"/>
<path d="M31 51V55" stroke="#231F20" stroke-width="2" stroke-linecap="round" stroke-linejoin="round"/>
<path d="M36.95 9.78L36.69 10.75" stroke="#231F20" stroke-width="2" stroke-linecap="round" stroke-linejoin="round"/>
<path d="M42.5 12.08L42 12.95" stroke="#231F20" stroke-width="2" stroke-linecap="round" stroke-linejoin="round"/>
<path d="M19.5 12.08L20 12.95" stroke="#231F20" stroke-width="2" stroke-linecap="round" stroke-linejoin="round"/>
<path d="M25.05 9.79001L25.3 10.75" stroke="#231F20" stroke-width="2" stroke-linecap="round" stroke-linejoin="round"/>
<path d="M47.26 15.74L46.55 16.45" stroke="#231F20" stroke-width="2" stroke-linecap="round" stroke-linejoin="round"/>
<path d="M50.92 20.5L50.05 21" stroke="#231F20" stroke-width="2" stroke-linecap="round" stroke-linejoin="round"/>
<path d="M53.21 26.05L52.25 26.31" stroke="#231F20" stroke-width="2" stroke-linecap="round" stroke-linejoin="round"/>
<path d="M54 32H50" stroke="#231F20" stroke-width="2" stroke-linecap="round" stroke-linejoin="round"/>
<path d="M53.21 37.96L52.25 37.7" stroke="#231F20" stroke-width="2" stroke-linecap="round" stroke-linejoin="round"/>
<path d="M50.91 43.5L50.05 43" stroke="#231F20" stroke-width="2" stroke-linecap="round" stroke-linejoin="round"/>
<path d="M47.26 48.27L46.55 47.56" stroke="#231F20" stroke-width="2" stroke-linecap="round" stroke-linejoin="round"/>
<path d="M42.5 51.92L41.99 51.05" stroke="#231F20" stroke-width="2" stroke-linecap="round" stroke-linejoin="round"/>
<path d="M36.95 54.22L36.69 53.25" stroke="#231F20" stroke-width="2" stroke-linecap="round" stroke-linejoin="round"/>
<path d="M14.72 15.75L28.86 29.86" stroke="#231F20" stroke-width="2" stroke-linecap="round" stroke-linejoin="round"/>
<path d="M31 35C32.6569 35 34 33.6569 34 32C34 30.3431 32.6569 29 31 29C29.3431 29 28 30.3431 28 32C28 33.6569 29.3431 35 31 35Z" stroke="#231F20" stroke-width="2" stroke-linecap="round" stroke-linejoin="round"/>
<path d="M6 39H14" stroke="#231F20" stroke-width="2" stroke-linecap="round" stroke-linejoin="round"/>
<path d="M4 45H20" stroke="#231F20" stroke-width="2" stroke-linecap="round" stroke-linejoin="round"/>
<path d="M8 51H26" stroke="#231F20" stroke-width="2" stroke-linecap="round" stroke-linejoin="round"/>
<path d="M16.86 55C21.9506 58.1294 27.9355 59.4817 33.8771 58.845C39.8186 58.2082 45.3811 55.6184 49.6929 51.4814C54.0048 47.3443 56.8224 41.8937 57.7043 35.9835C58.5862 30.0734 57.4826 24.0377 54.5664 18.822C51.6502 13.6064 47.0861 9.50547 41.5893 7.16188C36.0924 4.81829 29.9734 4.36442 24.191 5.87136C18.4086 7.37831 13.2894 10.7609 9.63558 15.4893C5.98175 20.2176 3.99971 26.0244 4 32C4.00126 33.0024 4.05802 34.0039 4.17 35" stroke="#231F20" stroke-width="2" stroke-linecap="round" stroke-linejoin="round"/>
</svg>
